<?xml version="1.0" encoding="UTF-8"?>
<svg version="1.1" xmlns="http://www.w3.org/2000/svg" width="512" height="512">
<path d="M0 0 C31.4130488 27.51872679 50.36989301 65.78149328 54.5 107.25 C57.45535748 152.56548133 43.08631475 194.39745563 13.70922852 228.85913086 C9.5786881 233.55116764 5.05870647 237.73587411 0.4375 241.9375 C-10.27239052 251.74845792 -16.83526979 262.62297623 -17.53808594 277.47021484 C-17.70393107 283.58354034 -17.70540813 289.69734448 -17.6875 295.8125 C-17.5991413 326.08698001 -17.5991413 326.08698001 -26.25 335.5625 C-27.25740234 336.71878906 -27.25740234 336.71878906 -28.28515625 337.8984375 C-36.55947357 344.42434591 -44.77527108 345.92715702 -55.08764648 345.8503418 C-56.32818787 345.86070969 -57.56872925 345.87107758 -58.84686279 345.88175964 C-62.21727849 345.90406552 -65.58614218 345.90416945 -68.95650744 345.89205909 C-71.78427987 345.88487515 -74.61191863 345.89346248 -77.43968064 345.90196449 C-84.1175455 345.92184544 -90.79505178 345.91642914 -97.47290039 345.89428711 C-104.33114822 345.87193142 -111.18845426 345.88952726 -118.04661316 345.92733639 C-123.9646679 345.95870004 -129.88243312 345.96644749 -135.80056053 345.95538265 C-139.32213696 345.94893692 -142.84317089 345.95069659 -146.36468315 345.97470665 C-150.29614165 346.00015259 -154.22650339 345.97618778 -158.15795898 345.94799805 C-159.30377945 345.96171448 -160.44959991 345.97543091 -161.63014221 345.98956299 C-170.89645062 345.85753577 -178.74490677 343.22200547 -185.69299984 336.91215038 C-193.89293014 328.2930541 -195.3074883 319.75209071 -195.3984375 308.2421875 C-195.42652064 306.25780446 -195.45518519 304.27342957 -195.484375 302.2890625 C-195.52547239 299.18229532 -195.56238769 296.07567803 -195.58886719 292.96875 C-195.61673285 289.95541437 -195.6626132 286.94275576 -195.7109375 283.9296875 C-195.71419037 283.01782684 -195.71744324 282.10596619 -195.72079468 281.16647339 C-196.04948913 263.6277768 -203.87013802 250.10696967 -216.1875 238.1875 C-217.22645791 237.30182565 -218.27334788 236.42536813 -219.328125 235.55859375 C-223.10087874 232.43009441 -226.08220532 228.96437626 -229.1875 225.1875 C-229.9403125 224.28386719 -230.693125 223.38023437 -231.46875 222.44921875 C-247.09288977 202.99320925 -257.54168143 180.42841288 -263.1875 156.1875 C-263.43306641 155.20354248 -263.43306641 155.20354248 -263.68359375 154.19970703 C-268.78031942 133.21783534 -268.50856048 107.08449495 -263.1875 86.1875 C-262.98882324 85.37104004 -262.79014648 84.55458008 -262.58544922 83.71337891 C-252.33865565 42.35010507 -226.85593811 5.98054848 -190.234375 -16.26171875 C-175.05252345 -25.17641541 -159.22405485 -31.42335095 -142.1875 -35.8125 C-141.50655273 -35.99329102 -140.82560547 -36.17408203 -140.12402344 -36.36035156 C-91.74821778 -48.58186349 -36.97545628 -32.02554618 0 0 Z " fill="#FFD066" transform="translate(360.1875,78.8125)"/>
<path d="M0 0 C1.04462402 -0.00700928 2.08924805 -0.01401855 3.16552734 -0.02124023 C6.61062381 -0.0388121 10.05489551 -0.02719969 13.5 -0.01367188 C15.8984391 -0.016367 18.29687714 -0.0202496 20.6953125 -0.02526855 C25.71885595 -0.03116254 30.74211467 -0.02260346 35.765625 -0.00390625 C42.20189072 0.01888275 48.63748922 0.00575921 55.07373047 -0.01819611 C60.02544168 -0.03265649 64.97699495 -0.02804688 69.92871094 -0.01768494 C72.30175862 -0.01501834 74.67482068 -0.01828502 77.04785156 -0.02760315 C80.36562028 -0.03777219 83.68231145 -0.02226121 87 0 C88.46832275 -0.01214539 88.46832275 -0.01214539 89.96630859 -0.02453613 C96.99262032 0.06271627 100.58971901 1.84326587 105.8125 6.64257812 C108.26870815 10.82722905 108.68079382 14.70394278 108.5 19.51757812 C106.85395187 25.42398611 104.30402955 28.04232271 99.5 31.51757812 C97.17167016 32.68174304 95.80034476 32.65307749 93.20649719 32.67147827 C92.30513535 32.68007874 91.4037735 32.6886792 90.47509766 32.69754028 C88.98755981 32.70393021 88.98755981 32.70393021 87.4699707 32.71044922 C85.90632027 32.72271545 85.90632027 32.72271545 84.31108093 32.73522949 C80.84932027 32.76011184 77.38760072 32.77660785 73.92578125 32.79101562 C72.74483572 32.7963393 71.56389019 32.80166298 70.34715843 32.80714798 C64.0951337 32.83389336 57.84312903 32.85326285 51.59106445 32.86767578 C45.13235815 32.88431644 38.67416281 32.92908615 32.2156496 32.98004723 C27.25106724 33.01370405 22.28660628 33.02525165 17.32192039 33.03090286 C14.94128711 33.03762083 12.56066196 33.05285689 10.18013954 33.07679367 C6.84533731 33.10840946 3.5119147 33.10848652 0.17700195 33.10107422 C-1.29535416 33.12568222 -1.29535416 33.12568222 -2.79745483 33.15078735 C-9.33805231 33.09135518 -12.5897879 31.89204725 -17.5 27.51757812 C-21.06774315 22.56877311 -21.33213877 17.41734847 -20.5 11.51757812 C-17.11245639 1.43150196 -9.44168435 -0.07809788 0 0 Z " fill="#FFD065" transform="translate(210.5,439.482421875)"/>
<path d="M0 0 C4.6513845 5.15423688 5.36766951 8.35572707 5.26953125 15.171875 C4.84759835 19.59911301 3.8367653 21.52496251 1 25 C-3.20501397 28.12343586 -7.82971635 29.24662037 -12.875 30.375 C-23.2551149 32.80968017 -31.66226007 38.62638685 -37.65625 47.43359375 C-40.63072312 52.45666233 -42.36729113 57.02060046 -43.5 62.75 C-44.67408558 68.5582704 -46.36374789 72.24344701 -51 76 C-55.42110165 78.82459272 -60.91619174 78.65281647 -66 78 C-70.85852277 75.66071126 -73.79310276 72.92307846 -76 68 C-78.19510518 52.38808372 -71.96240593 38.39584562 -63 26 C-50.86845884 10.87799153 -20.39135664 -14.42315469 0 0 Z " fill="#FFFEFD" transform="translate(222,92)"/>
<path d="M0 0 C4.46588135 3.01187347 7.20597568 6.62716486 8.6875 11.8125 C9.36987609 17.84015547 8.1062106 21.93864591 4.6875 26.8125 C-0.24353832 32.35338404 -5.72923797 37.30145475 -11.38671875 42.0859375 C-13.4836473 43.96594241 -15.34174896 45.99240518 -17.25 48.0625 C-21.15057316 51.97830977 -24.77288682 54.15302224 -30.3125 54.8125 C-36.73382514 54.53608534 -40.87782565 52.35533714 -45.3125 47.8125 C-47.3904284 44.52780218 -47.63844676 41.79308445 -47.6875 37.9375 C-47.71585937 36.92945313 -47.74421875 35.92140625 -47.7734375 34.8828125 C-46.563286 26.82197287 -39.07152008 21.27333623 -33.5625 15.8125 C-32.69367188 14.9359375 -31.82484375 14.059375 -30.9296875 13.15625 C-13.04368704 -4.67603875 -13.04368704 -4.67603875 0 0 Z " fill="#FFD065" transform="translate(439.3125,44.1875)"/>
<path d="M0 0 C3.9020884 3.35761094 6.28638278 5.85738595 7.140625 11.0859375 C7.4857003 17.31297819 6.93470873 21.53779571 2.7734375 26.265625 C-0.77024636 29.74294774 -4.36968842 33.13468659 -8.0859375 36.42578125 C-10.26506328 38.3561092 -12.38687593 40.32869329 -14.4765625 42.35546875 C-25.62600702 53.10709436 -25.62600702 53.10709436 -33.3671875 53.38671875 C-39.68105838 52.96976501 -43.50669556 50.26086795 -47.6875 45.75 C-49.94954615 40.96490237 -50.27259204 36.51535169 -49.3125 31.3125 C-46.61647331 25.5173642 -43.04552086 21.77950805 -38.3125 17.5625 C-36.97003151 16.34377266 -35.62758388 15.12502235 -34.28515625 13.90625 C-33.61758301 13.30554688 -32.95000977 12.70484375 -32.26220703 12.0859375 C-30.43827101 10.42690028 -28.64924317 8.73910655 -26.87109375 7.03125 C-26.34193359 6.52819336 -25.81277344 6.02513672 -25.26757812 5.50683594 C-23.84047832 4.14861161 -22.41812187 2.78540835 -20.99609375 1.421875 C-14.39666484 -3.76544903 -7.26871517 -3.70293037 0 0 Z " fill="#FFD065" transform="translate(129.3125,350.6875)"/>
<path d="M0 0 C2.09145781 1.72712141 4.04682002 3.44400164 6 5.3125 C6.54889893 5.82941406 7.09779785 6.34632812 7.66333008 6.87890625 C9.45306419 8.57500176 11.22838129 10.2849976 13 12 C13.63728027 12.61536621 14.27456055 13.23073242 14.93115234 13.86474609 C16.85865787 15.73449864 18.77539586 17.61450813 20.6875 19.5 C21.58758789 20.3803894 21.58758789 20.3803894 22.50585938 21.27856445 C23.06466797 21.83632568 23.62347656 22.39408691 24.19921875 22.96875 C24.69252686 23.45794922 25.18583496 23.94714844 25.6940918 24.45117188 C29.50963079 28.97646247 29.42375703 33.37010741 29.3125 39.0859375 C28.73274421 44.49216021 26.24527742 46.97610523 22.1875 50.3125 C18.00079006 52.5289935 14.64281771 53.55951459 9.90597534 52.55667114 C4.14500775 50.7780137 0.51013252 48.40217152 -3.6796875 44.1171875 C-4.25913116 43.54348419 -4.83857483 42.96978088 -5.43557739 42.37869263 C-6.64769755 41.17062659 -7.85239022 39.95506549 -9.04980469 38.73242188 C-10.87090871 36.87916353 -12.72185911 35.06014949 -14.578125 33.2421875 C-15.75974086 32.05660629 -16.93949385 30.86916491 -18.1171875 29.6796875 C-18.66406219 29.14495819 -19.21093689 28.61022888 -19.77438354 28.05929565 C-23.74245985 23.94443593 -25.96584897 19.65777591 -27 14 C-26.63380985 7.58317569 -24.62925762 3.41394331 -20 -1 C-13.54333078 -4.9457423 -6.20260043 -3.63844071 0 0 Z " fill="#FFD065" transform="translate(91,46)"/>
<path d="M0 0 C0.8211882 -0.00570007 1.6423764 -0.01140015 2.4884491 -0.01727295 C4.22413858 -0.02670487 5.95984582 -0.03324974 7.69555664 -0.03710938 C10.33577118 -0.04680268 12.97520276 -0.07783752 15.61523438 -0.109375 C17.30598499 -0.11590706 18.99674114 -0.12115673 20.6875 -0.125 C21.4700264 -0.1373468 22.2525528 -0.1496936 23.05879211 -0.16241455 C28.83777567 -0.13920813 33.79424245 0.78104106 38.28515625 4.73828125 C42.74752034 10.75477903 43.26323946 14.75346796 42.54296875 22.203125 C41.05306554 27.12160067 38.09877761 29.94354874 33.6105957 32.38476562 C29.79279107 33.89583909 25.9761294 33.7725556 21.91796875 33.734375 C21.01224121 33.7382019 20.10651367 33.74202881 19.17333984 33.74597168 C17.26724123 33.74868154 15.36110484 33.74138551 13.45507812 33.72460938 C10.55123334 33.70318597 7.64986234 33.72444212 4.74609375 33.75 C2.88671333 33.74735656 1.02733445 33.74223124 -0.83203125 33.734375 C-1.6926416 33.74247192 -2.55325195 33.75056885 -3.43994141 33.75891113 C-9.264482 33.66910418 -12.66680841 32.55935164 -17.45703125 29.203125 C-21.49081969 24.63857493 -22.69759384 20.18581192 -22.45703125 14.203125 C-20.83715355 8.22982597 -17.59470139 4.49565339 -12.45703125 1.203125 C-8.34230294 -0.03230862 -4.26228068 0.02297007 0 0 Z " fill="#FFCF65" transform="translate(445.45703125,205.796875)"/>
<path d="M0 0 C0.8211882 -0.00570007 1.6423764 -0.01140015 2.4884491 -0.01727295 C4.22413858 -0.02670487 5.95984582 -0.03324974 7.69555664 -0.03710938 C10.33577118 -0.04680268 12.97520276 -0.07783752 15.61523438 -0.109375 C17.30598499 -0.11590706 18.99674114 -0.12115673 20.6875 -0.125 C21.4700264 -0.1373468 22.2525528 -0.1496936 23.05879211 -0.16241455 C28.83777567 -0.13920813 33.79424245 0.78104106 38.28515625 4.73828125 C42.90237792 10.96356978 43.41278589 15.47361356 42.54296875 23.203125 C40.89864396 27.27141134 38.73277887 29.46492924 35.03125 31.76147461 C30.57270268 33.60412032 26.82644523 33.67075993 22.05078125 33.671875 C21.14601044 33.67948853 20.24123962 33.68710205 19.30905151 33.69494629 C17.40121205 33.70571726 15.49331376 33.70861264 13.58544922 33.70410156 C10.68355803 33.70313022 7.78432183 33.74476465 4.8828125 33.7890625 C3.02214088 33.79427104 1.16146015 33.79695767 -0.69921875 33.796875 C-1.98709793 33.8214679 -1.98709793 33.8214679 -3.30099487 33.84655762 C-9.50509925 33.77623028 -13.64444801 32.14832218 -18.45703125 28.203125 C-22.08797235 23.70938602 -21.95937219 19.66768692 -21.80859375 14.08203125 C-21.17410635 8.88628441 -18.66873396 6.32395 -14.95703125 2.890625 C-10.27793167 -0.26776722 -5.49981546 0.02963932 0 0 Z " fill="#FFD066" transform="translate(37.45703125,205.796875)"/>
<path d="M0 0 C2.52013348 2.06199288 4.85182764 4.29554169 7.1875 6.5625 C8.50818365 7.82649424 9.82980587 9.08950851 11.15234375 10.3515625 C12.12469971 11.28210449 12.12469971 11.28210449 13.11669922 12.23144531 C14.81830753 13.82937772 16.54844334 15.37472198 18.31640625 16.8984375 C28.28198144 25.52376889 28.28198144 25.52376889 29.26171875 32.99609375 C29.5700521 38.62051936 28.23094452 42.47985897 24.5234375 46.66796875 C20.17296885 50.8495836 17.02494882 52 11 52 C4.54291874 50.83084801 1.29551171 48.03306548 -3.1875 43.5625 C-4.49795784 42.29350612 -5.80916631 41.025287 -7.12109375 39.7578125 C-7.76933105 39.12520508 -8.41756836 38.49259766 -9.08544922 37.84082031 C-10.8713042 36.12373965 -12.68774328 34.45507793 -14.53515625 32.8046875 C-15.35173706 32.07463501 -15.35173706 32.07463501 -16.18481445 31.32983398 C-17.6582712 30.01909871 -19.1337565 28.71064485 -20.609375 27.40234375 C-24.92925364 23.06128923 -26.58368636 19.27855855 -27.0625 13.2734375 C-26.92485689 8.26666938 -24.77224138 4.91449638 -21.625 1.1875 C-14.73478159 -4.55434867 -7.50194549 -4.43880393 0 0 Z " fill="#FFD065" transform="translate(395,352)"/>
</svg>
